<svg width="1181" height="211" viewBox="0 0 1181 211" fill="none" xmlns="http://www.w3.org/2000/svg">
<path d="M141.17 211L98.2703 146.5L60.4703 211H2.27031L69.7703 103.9L0.770313 0.399993H60.4703L102.77 64L139.97 0.399993H198.17L131.27 106.6L200.87 211H141.17ZM407.223 0.399993L334.323 141.4V211H283.023V141.4L210.123 0.399993H268.323L309.123 88.6L349.623 0.399993H407.223ZM535.293 211L491.493 131.5H479.193V211H427.893V0.399993H513.993C530.593 0.399993 544.693 3.29999 556.293 9.09999C568.093 14.9 576.893 22.9 582.693 33.1C588.493 43.1 591.393 54.3 591.393 66.7C591.393 80.7 587.393 93.2 579.393 104.2C571.593 115.2 559.993 123 544.593 127.6L593.193 211H535.293ZM479.193 95.2H510.993C520.393 95.2 527.393 92.9 531.993 88.3C536.793 83.7 539.193 77.2 539.193 68.8C539.193 60.8 536.793 54.5 531.993 49.9C527.393 45.3 520.393 43 510.993 43H479.193V95.2ZM754.696 173.8H676.096L663.496 211H609.796L685.996 0.399993H745.396L821.596 211H767.296L754.696 173.8ZM741.496 134.2L715.396 57.1L689.596 134.2H741.496ZM1039.46 173.8H960.862L948.262 211H894.562L970.762 0.399993H1030.16L1106.36 211H1052.06L1039.46 173.8ZM1026.26 134.2L1000.16 57.1L974.362 134.2H1026.26ZM1180.85 0.399993V211H1129.55V0.399993H1180.85Z" fill="#6366F1"/>
<path d="M6 42L393 41" stroke="#6366F1"/>
</svg>
